<svg xmlns="http://www.w3.org/2000/svg" width="160" height="32.699" viewBox="0 0 160 32.699"><defs><style>.a{fill:#3f4443;}</style></defs><g transform="translate(0 0)"><path class="a" d="M25.153,30.016c.084-.056.2-.112.279-.168a.386.386,0,0,1,.112-.084,16.278,16.278,0,0,0,0-26.886.386.386,0,0,0-.112-.084c-.084-.056-.2-.112-.279-.168-.14-.084-.252-.168-.391-.252-.056-.028-.084-.056-.14-.084A16.162,16.162,0,0,0,16.321,0h0A16.341,16.341,0,0,0,0,16.321a6.81,6.81,0,0,0,.028.755V17.3a3.788,3.788,0,0,0,.056.559.476.476,0,0,0,.028.2c.056.5.14,1.006.224,1.481,0,.056.028.084.028.14.056.2.084.419.14.615,0,.056.028.084.028.14a7.709,7.709,0,0,0,.224.755h0l.028.056a4.345,4.345,0,0,0,.224.643h0a1.926,1.926,0,0,0,.084.224l.168.5H12.045v4.024H18.7a8,8,0,0,0,5.757-2.459,9.754,9.754,0,0,0,2.236-3.438,11.6,11.6,0,0,0,.783-4.164A10.3,10.3,0,0,0,24.454,9,7.938,7.938,0,0,0,18.7,6.484H8.189V21.156H2.543c-.084-.252-.168-.5-.252-.783,0-.028-.028-.056-.028-.084a4.086,4.086,0,0,1-.14-.559c-.028-.056-.028-.14-.056-.2-.028-.084-.028-.168-.056-.279a.827.827,0,0,1-.056-.279c-.028-.084-.028-.2-.056-.279a1.887,1.887,0,0,1-.056-.391c0-.056-.028-.14-.028-.2-.028-.14-.028-.307-.056-.447v-.084a3.209,3.209,0,0,1-.028-.531v-.727a14.612,14.612,0,0,1,29.205-.755c0,.252.028.5.028.755a6.81,6.81,0,0,1-.028.755c-.028.475-.084.922-.14,1.4,0,.056-.028.14-.028.2a14.037,14.037,0,0,1-.838,3.046,14.676,14.676,0,0,1-13.583,9.251h-.727c-.168,0-.335-.028-.475-.028h-.084c-.2-.028-.363-.028-.559-.056-.056,0-.112-.028-.168-.028a2.446,2.446,0,0,0-.447-.056.252.252,0,0,1-.14-.028,3.594,3.594,0,0,1-.531-.112c-.056,0-.112-.028-.168-.028a2.328,2.328,0,0,1-.419-.112c-.056,0-.084-.028-.14-.028-.168-.056-.335-.084-.5-.14-.056-.028-.112-.028-.14-.056-.14-.056-.252-.084-.391-.14-.056-.028-.112-.028-.168-.056a2.418,2.418,0,0,1-.475-.2c-.056-.028-.084-.028-.14-.056-.112-.056-.252-.112-.363-.168l-.168-.084c-.168-.084-.307-.14-.447-.224-.028-.028-.084-.028-.112-.056-.112-.056-.252-.14-.363-.2l-.168-.084c-.112-.084-.252-.14-.363-.224l-.168-.084a2.551,2.551,0,0,0-.363-.224c-.056-.028-.112-.084-.168-.112-.112-.084-.2-.14-.307-.224-.056-.028-.084-.084-.14-.112a1.924,1.924,0,0,1-.363-.307A15.237,15.237,0,0,1,4.639,25.1H2.515a15.5,15.5,0,0,0,2.04,2.6h0l.14.14.14.14c.168.168.335.335.5.475.056.056.14.112.2.168a2.97,2.97,0,0,0,.307.252l.419.335c.084.084.2.14.279.224.084.056.2.14.279.2.112.084.252.168.391.279a1.584,1.584,0,0,0,.363.224,2.458,2.458,0,0,0,.279.168c.14.084.307.168.447.252.084.056.2.112.279.168.14.084.279.14.419.224a1.66,1.66,0,0,1,.224.112,3.478,3.478,0,0,1,.559.279c.084.028.14.056.224.084.168.056.335.14.5.2a.4.4,0,0,0,.168.056c.2.084.419.14.643.224a.518.518,0,0,0,.2.056c.224.056.447.14.671.2.028,0,.056.028.084.028a4.342,4.342,0,0,0,.643.14c.056,0,.112.028.168.028.224.056.475.084.7.14.056,0,.084.028.14.028.224.028.447.056.643.084a.168.168,0,0,1,.112.028,6.882,6.882,0,0,0,.727.056h.168c.252,0,.5.028.755.028h0a16.087,16.087,0,0,0,8.3-2.292c.056-.028.084-.056.14-.084A1.881,1.881,0,0,1,25.153,30.016ZM9.67,7.881h9.055a6,6,0,0,1,1.7.252,6.872,6.872,0,0,1,3.1,1.845,9.017,9.017,0,0,1,2.431,6.652,9.727,9.727,0,0,1-1.872,5.925,6.628,6.628,0,0,1-.7.81,6.488,6.488,0,0,1-4.7,1.956H13.471V22.665h4.863A4.783,4.783,0,0,0,21.8,21.184a6.005,6.005,0,0,0,1.341-2.068,6.787,6.787,0,0,0,.475-2.487A6.26,6.26,0,0,0,21.8,12.073a4.8,4.8,0,0,0-3.466-1.509H12.045v9.614H13.5V11.906h4.835a3.514,3.514,0,0,1,.922.14,3.712,3.712,0,0,1,1.649.978,4.833,4.833,0,0,1,1.314,3.549,5.022,5.022,0,0,1-1.006,3.158,2.8,2.8,0,0,1-.363.419,3.373,3.373,0,0,1-2.487,1.006H9.726V7.881Z" transform="translate(0 0)"/></g><path class="a" d="M135.1,49.507V38.3h6.512a6.164,6.164,0,0,1,2.18.391,5.289,5.289,0,0,1,1.733,1.118,5.355,5.355,0,0,1,1.146,1.733,5.793,5.793,0,0,1,.419,2.236,6.039,6.039,0,0,1-.419,2.264,5.293,5.293,0,0,1-1.146,1.817,5.076,5.076,0,0,1-1.733,1.2,5.626,5.626,0,0,1-2.18.447Zm6.484-1.956a3.288,3.288,0,0,0,1.4-.279,3.935,3.935,0,0,0,1.118-.755,3.336,3.336,0,0,0,.727-1.174,4.181,4.181,0,0,0,.252-1.453,4.07,4.07,0,0,0-.252-1.453,3.217,3.217,0,0,0-.727-1.146,3.579,3.579,0,0,0-1.118-.755,3.774,3.774,0,0,0-1.4-.279h-4.555v7.294Z" transform="translate(-97.343 -27.596)"/><path class="a" d="M194.7,49.507V38.3h10.005v1.956h-8.077v7.294h8.077v1.956Zm3.382-4.863V43h6.2v1.649Z" transform="translate(-140.286 -27.596)"/><path class="a" d="M249.372,40.958v8.217H247.5v-10.2a1.245,1.245,0,0,1,.279-.866.845.845,0,0,1,.727-.307,1.121,1.121,0,0,1,.419.084,1.338,1.338,0,0,1,.419.307l7.909,7.853V37.856h1.872V48.141a1.2,1.2,0,0,1-.279.866.908.908,0,0,1-.7.307,1.272,1.272,0,0,1-.894-.419Z" transform="translate(-178.33 -27.236)"/><path class="a" d="M311.078,49.435a5.16,5.16,0,0,1-2.18-.447,5.83,5.83,0,0,1-1.733-1.2,5.746,5.746,0,0,1-1.146-1.817,6.322,6.322,0,0,1,0-4.528,4.94,4.94,0,0,1,1.146-1.733,5.289,5.289,0,0,1,1.733-1.118,6.164,6.164,0,0,1,2.18-.391h2.739a6.362,6.362,0,0,1,2.236.391,5.289,5.289,0,0,1,1.733,1.118,4.876,4.876,0,0,1,1.118,1.733,5.787,5.787,0,0,1,.391,2.236,6.038,6.038,0,0,1-.419,2.264,5.293,5.293,0,0,1-1.146,1.817A5.359,5.359,0,0,1,316,48.96a5.66,5.66,0,0,1-2.208.447h-2.711Zm2.739-1.956a3.507,3.507,0,0,0,1.425-.279,3.935,3.935,0,0,0,1.118-.755,3.337,3.337,0,0,0,.727-1.174,4.181,4.181,0,0,0,.252-1.453,4.069,4.069,0,0,0-.252-1.453,3.217,3.217,0,0,0-.727-1.146,3.935,3.935,0,0,0-1.118-.755,3.809,3.809,0,0,0-1.425-.279h-2.739a3.288,3.288,0,0,0-1.4.279,2.945,2.945,0,0,0-1.09.755,3.217,3.217,0,0,0-.727,1.146,4.324,4.324,0,0,0,0,2.907,3.61,3.61,0,0,0,.727,1.174,2.945,2.945,0,0,0,1.09.755,3.288,3.288,0,0,0,1.4.279Z" transform="translate(-220.192 -27.524)"/><path class="a" d="M363.3,38.3h2.4l5.086,8.636,5.086-8.636h2.264l-6.456,10.732a1.7,1.7,0,0,1-.391.475.92.92,0,0,1-.531.168.944.944,0,0,1-.559-.168,1.325,1.325,0,0,1-.391-.475Z" transform="translate(-261.766 -27.596)"/><path class="a" d="M432.1,49.507V38.3h1.956V49.535H432.1Z" transform="translate(-311.338 -27.596)"/><path class="a" d="M467.1,38.3H469v6.26a6.9,6.9,0,0,1-.335,2.264,3.727,3.727,0,0,1-1.062,1.593,4.925,4.925,0,0,1-1.872.95,11.366,11.366,0,0,1-2.795.307,11.125,11.125,0,0,1-2.767-.307,4.559,4.559,0,0,1-1.872-.95,3.728,3.728,0,0,1-1.062-1.593,6.9,6.9,0,0,1-.335-2.264V38.3h2.012v6.26a4.461,4.461,0,0,0,.2,1.453,2.2,2.2,0,0,0,.671.978,2.912,2.912,0,0,0,1.258.559,11.5,11.5,0,0,0,3.913,0,2.912,2.912,0,0,0,1.258-.559,2.2,2.2,0,0,0,.671-.978,4.461,4.461,0,0,0,.2-1.453V38.3Z" transform="translate(-329.207 -27.596)"/><path class="a" d="M527.789,49.075l-2.152-7.881-3.186,7.294a1.728,1.728,0,0,1-.419.559.877.877,0,0,1-.587.2,1.03,1.03,0,0,1-1.006-.755l-3.158-7.294-2.152,7.881H513.2l2.879-10.564a.94.94,0,0,1,.978-.81,1.174,1.174,0,0,1,.587.168,1.266,1.266,0,0,1,.419.5l3.465,7.965,3.466-7.937a.983.983,0,0,1,1.9.14L529.773,49.1h-1.984Z" transform="translate(-369.773 -27.164)"/></svg>